<svg id="Layer_1" data-name="Layer 1" xmlns="http://www.w3.org/2000/svg" viewBox="0 0 147.23 157.94"><title>search</title><path d="M1323.09-149.28,1290-182.38a65.58,65.58,0,0,0,19.25-46.46,65.86,65.86,0,0,0-65.78-65.78,65.86,65.86,0,0,0-65.78,65.78,65.86,65.86,0,0,0,65.78,65.78,65.33,65.33,0,0,0,34.5-9.8l0,.06,34.3,34.29a6.26,6.26,0,0,0,8.85,0l1.92-1.92A6.26,6.26,0,0,0,1323.09-149.28ZM1188-228.84a55.57,55.57,0,0,1,55.51-55.51A55.57,55.57,0,0,1,1299-228.84a55.57,55.57,0,0,1-55.51,55.51A55.57,55.57,0,0,1,1188-228.84Z" transform="translate(-1177.69 294.62)"/></svg>
